<?xml version="1.0" encoding="utf-8"?>
<!-- Generator: Adobe Illustrator 24.0.1, SVG Export Plug-In . SVG Version: 6.00 Build 0)  -->
<svg version="1.1" id="jm_logistic" xmlns="http://www.w3.org/2000/svg" xmlns:xlink="http://www.w3.org/1999/xlink" x="0px"
	 y="0px" viewBox="0 0 1931.5 1627.4" style="enable-background:new 0 0 1931.5 1627.4;" xml:space="preserve">
<style type="text/css">
	.st0{display:none;fill:#FFFFFF;}
	.st1{fill:#C1C1C1;}
</style>
<rect id="background" x="-451.9" y="-433.2" class="st0" width="3000" height="3000"/>
<g>
	<path class="st1" d="M1214.2,399.3H352.3l0,409.8c0,4.6,0.1,9.2,0.4,13.9v0.7c2.4,55,16.5,107.4,40.4,157.1
		c28,58.4,66.7,107.8,118.8,149.7c0.1,0.1,0.2,0.2,0.3,0.3c7.5,6,15.2,11.8,23.2,17.5l0-563.7h0.1l151.2,0.1h0.1l-0.1,624.3
		c30.7,6.4,62.7,9.8,95.4,9.8c32.2,0,63.5-3.3,93.6-9.4l-0.4-622.5h148.7v561.5c7.4-3.4,13.9-7.4,23.2-14c0.1-0.1,0.2-0.2,0.4-0.3
		c97.5-78.3,153.1-178.8,163.7-301.3c1.1-11.6,1.7-23.5,1.9-35.4C1215.2,671.3,1214.2,399.3,1214.2,399.3z"/>
	<polygon class="st1" points="498.1,43 352.3,201.4 352.3,228 365.1,228 535.3,43 	"/>
	<polygon class="st1" points="352.3,43 352.3,81.7 387.9,43 	"/>
	<polygon class="st1" points="424.7,43 352.3,121.7 352.3,161.5 461.3,43 	"/>
	<path class="st1" d="M1578.5,43H572L401.9,228h990c0,0-0.2,379.7-0.8,554.5c-0.7,182.2-67.6,336.5-203,458.3
		c-145.5,130.9-317.9,179.1-510.4,149.1c-125.2-19.5-247.1-85.1-325.3-169.1L352,1459c0,0,11.3,7.5,17.2,11.1
		c157.9,93.9,328,129.2,510.4,108.7c391-43.8,698.5-385.6,699.9-780.3L1578.5,43z"/>
	<path class="st1" d="M1214.2,400.1H353.9l0,409c0,4.6,0.1,9.2,0.4,13.8v0.7c2.4,54.9,16.5,107.2,40.3,156.8
		c27.9,58.2,66.6,107.6,118.6,149.4c0.1,0.1,0.2,0.2,0.3,0.3c7.5,6,15.2,11.8,23.2,17.5l0-562.6h0.1l150.9,0.1h0.1l-0.1,623.1
		c30.7,6.4,62.5,9.8,95.3,9.8c32.1,0,63.3-3.3,93.4-9.4l-0.4-621.3h148.4v560.5c7.4-3.4,13.9-7.4,23.1-14c0.1-0.1,0.2-0.2,0.4-0.3
		c97.3-78.2,152.8-178.5,163.4-300.7c1.1-11.6,1.7-23.4,1.9-35.4C1215.2,671.5,1214.2,400.1,1214.2,400.1z"/>
</g>
</svg>
